<svg xmlns="http://www.w3.org/2000/svg" width="25" height="25" viewBox="0 0 25 25" fill="none">
  <g clip-path="url(#clip0_7434_95289)">
    <path d="M12.5 25C5.5975 25 0 19.4025 0 12.5C0 5.5975 5.5975 0 12.5 0C19.4025 0 25 5.5975 25 12.5C25 19.4025 19.4025 25 12.5 25Z" fill="#59697A"/>
    <path d="M15.75 24.9998V15.3173H19L19.4875 11.5448H15.75V9.13484C15.75 8.04234 16.0525 7.29734 17.62 7.29734H19.6175V3.92484C19.2725 3.87984 18.085 3.77734 16.705 3.77734C13.825 3.77734 11.8525 5.53484 11.8525 8.76484V11.5473H8.595V15.3198H11.8525V24.9998H15.75Z" fill="white"/>
  </g>
  <defs>
    <clipPath id="clip0_7434_95289">
      <rect width="25" height="25" fill="white"/>
    </clipPath>
  </defs>
</svg>