<svg xmlns="http://www.w3.org/2000/svg" width="25" height="25" viewBox="0 0 25 25" fill="none">
  <path d="M12.5 25C5.5975 25 0 19.4025 0 12.5C0 5.5975 5.5975 0 12.5 0C19.4025 0 25 5.5975 25 12.5C25 19.4025 19.4025 25 12.5 25Z" fill="#59697A"/>
  <path d="M4.605 9.68268H7.9275V20.3752H4.605V9.68268ZM6.2675 4.36768C7.33 4.36768 8.1925 5.23018 8.1925 6.29518C8.1925 7.36018 7.33 8.22268 6.2675 8.22268C5.2025 8.22268 4.34 7.36018 4.34 6.29518C4.3375 5.23268 5.2 4.36768 6.2675 4.36768Z" fill="white"/>
  <path d="M10.0125 9.68254H13.2V11.1425H13.245C13.6875 10.3025 14.77 9.41504 16.39 9.41504C19.755 9.41504 20.3775 11.63 20.3775 14.5075V20.375H17.055V15.1775C17.055 13.935 17.0325 12.3425 15.3275 12.3425C13.5975 12.3425 13.3325 13.6925 13.3325 15.0875V20.3775H10.0125V9.68254Z" fill="white"/>
</svg>