<svg xmlns="http://www.w3.org/2000/svg" width="24" height="24" viewBox="0 0 24 24" fill="none">
  <path d="M12 16.5C11.2252 16.5 10.4503 16.2458 9.78938 15.7308L0 8.11875V18.75C0 19.9922 1.00734 21 2.25 21H21.75C22.9927 21 24 19.9927 24 18.75V8.11875L14.2125 15.7359C13.5516 16.2469 12.7734 16.5 12 16.5ZM0.763594 6.81094L10.7105 14.55C11.4694 15.1406 12.5325 15.1406 13.2914 14.55L23.2383 6.81094C23.6766 6.43594 24 5.85938 24 5.25C24 4.00734 22.9922 3 21.75 3H2.25C1.00734 3 0 4.00734 0 5.25C0 5.85938 0.281719 6.43594 0.763594 6.81094Z" fill="#1978EF"/>
</svg>