<svg xmlns="http://www.w3.org/2000/svg" width="25" height="25" viewBox="0 0 25 25" fill="none">
  <g clip-path="url(#clip0_7434_95377)">
    <path d="M12.5 0C5.59619 0 0 5.59619 0 12.5C0 19.4038 5.59619 25 12.5 25C19.4038 25 25 19.4038 25 12.5C25 5.59619 19.4038 0 12.5 0ZM18.9971 7.90723L16.7769 18.5059C16.6885 18.9282 16.2739 19.1992 15.8516 19.1104C15.7417 19.0874 15.6377 19.041 15.5474 18.9741L12.3179 16.5884L10.3613 18.4341C10.2549 18.5347 10.0869 18.5298 9.98682 18.4233C9.98584 18.4224 9.98486 18.4209 9.9834 18.4199L9.94141 18.3735L10.2812 15.0835L16.4082 9.48535C16.4751 9.42432 16.48 9.3208 16.4189 9.25391C16.3652 9.19531 16.2773 9.18311 16.21 9.22607L8.37402 14.1855L4.99951 13.0522C4.75928 12.9717 4.63037 12.7114 4.71094 12.4712C4.75488 12.3408 4.85498 12.2368 4.98389 12.188L18.188 7.21387C18.502 7.0957 18.8525 7.25439 18.9707 7.56836C19.0112 7.67627 19.0205 7.79394 18.9966 7.90674L18.9971 7.90723Z" fill="#59697A"/>
  </g>
  <defs>
    <clipPath id="clip0_7434_95377">
      <rect width="25" height="25" fill="white"/>
    </clipPath>
  </defs>
</svg>