<svg xmlns="http://www.w3.org/2000/svg" width="70" height="70" viewBox="0 0 70 70" fill="none">
  <path d="M66.7188 38.2812H51.4062C51.1162 38.2812 50.838 38.3965 50.6329 38.6016C50.4277 38.8067 50.3125 39.0849 50.3125 39.375V65.625H43.75V20.7812C43.75 20.4912 43.6348 20.213 43.4296 20.0079C43.2245 19.8027 42.9463 19.6875 42.6562 19.6875H27.3438C27.0537 19.6875 26.7755 19.8027 26.5704 20.0079C26.3652 20.213 26.25 20.4912 26.25 20.7812V65.625H19.6875V35C19.6875 34.7099 19.5723 34.4317 19.3671 34.2266C19.162 34.0215 18.8838 33.9062 18.5938 33.9062H3.28125C2.99117 33.9062 2.71297 34.0215 2.50785 34.2266C2.30273 34.4317 2.1875 34.7099 2.1875 35V66.7188C2.1875 67.0088 2.30273 67.287 2.50785 67.4921C2.71297 67.6973 2.99117 67.8125 3.28125 67.8125H66.7188C67.0088 67.8125 67.287 67.6973 67.4921 67.4921C67.6973 67.287 67.8125 67.0088 67.8125 66.7188V39.375C67.8125 39.0849 67.6973 38.8067 67.4921 38.6016C67.287 38.3965 67.0088 38.2812 66.7188 38.2812ZM4.375 65.625V36.0938H17.5V65.625H4.375ZM28.4375 65.625V21.875H41.5625V65.625H28.4375ZM52.5 65.625V40.4688H65.625V65.625H52.5Z" fill="white"/>
  <path d="M10.9375 29.5311C11.9885 29.5341 13.0248 29.2838 13.9587 28.8015C14.8925 28.3192 15.6965 27.6191 16.3026 26.7603C16.9086 25.9016 17.2989 24.9095 17.4404 23.868C17.5819 22.8265 17.4705 21.7663 17.1156 20.777L29.8875 12.8546C30.4565 13.5667 31.1681 14.152 31.9766 14.573C32.7851 14.994 33.6726 15.2413 34.5823 15.2992C35.492 15.3571 36.4037 15.2242 37.2591 14.9091C38.1144 14.5939 38.8944 14.1035 39.5491 13.4693L53.2128 24.3849C52.4674 25.8561 52.302 27.5536 52.7493 29.1409C53.1966 30.7283 54.224 32.0897 55.6277 32.9553C57.0315 33.8208 58.7092 34.1274 60.3284 33.8143C61.9476 33.5011 63.39 32.591 64.3698 31.2644C65.3496 29.9378 65.7952 28.2916 65.6183 26.6519C65.4415 25.0122 64.655 23.4988 63.4149 22.4117C62.1748 21.3246 60.5714 20.743 58.9227 20.7823C57.274 20.8217 55.7003 21.479 54.5134 22.624L40.8497 11.7084C41.3436 10.7392 41.5889 9.66256 41.5635 8.57513C41.5382 7.4877 41.243 6.42361 40.7046 5.47853C40.1661 4.53344 39.4012 3.73699 38.4786 3.16077C37.5561 2.58455 36.5048 2.24662 35.4193 2.17738C34.3337 2.10813 33.248 2.30973 32.2597 2.76406C31.2714 3.21839 30.4115 3.91119 29.7573 4.7802C29.1032 5.6492 28.6752 6.66716 28.5119 7.74255C28.3486 8.81795 28.4551 9.91707 28.8218 10.9411L16.05 18.8639C15.3556 17.9991 14.4532 17.3244 13.4272 16.9031C12.4013 16.4817 11.2852 16.3273 10.1834 16.4544C9.0816 16.5814 8.02999 16.9858 7.12687 17.6296C6.22376 18.2734 5.49863 19.1358 5.01927 20.1359C4.53991 21.1361 4.32197 22.2415 4.38582 23.3488C4.44967 24.4561 4.79322 25.5291 5.38437 26.4675C5.97552 27.406 6.79496 28.1792 7.76609 28.715C8.73723 29.2508 9.82835 29.5316 10.9375 29.5311ZM59.0625 22.9686C59.9278 22.9686 60.7736 23.2252 61.4931 23.706C62.2126 24.1867 62.7733 24.87 63.1045 25.6694C63.4356 26.4688 63.5222 27.3485 63.3534 28.1972C63.1846 29.0458 62.7679 29.8254 62.1561 30.4372C61.5442 31.0491 60.7647 31.4658 59.916 31.6346C59.0673 31.8034 58.1877 31.7167 57.3882 31.3856C56.5888 31.0545 55.9055 30.4937 55.4248 29.7743C54.9441 29.0548 54.6875 28.2089 54.6875 27.3436C54.6888 26.1837 55.1501 25.0717 55.9703 24.2515C56.7905 23.4313 57.9026 22.9699 59.0625 22.9686ZM35 4.37488C35.8653 4.37488 36.7111 4.63147 37.4306 5.1122C38.1501 5.59293 38.7108 6.27622 39.0419 7.07564C39.3731 7.87507 39.4597 8.75474 39.2909 9.6034C39.1221 10.4521 38.7054 11.2316 38.0936 11.8435C37.4817 12.4553 36.7022 12.872 35.8535 13.0408C35.0048 13.2096 34.1252 13.123 33.3257 12.7919C32.5263 12.4607 31.843 11.9 31.3623 11.1805C30.8816 10.461 30.625 9.61518 30.625 8.74988C30.6263 7.58996 31.0876 6.47792 31.9078 5.65773C32.728 4.83754 33.8401 4.37619 35 4.37488ZM10.9375 18.5936C11.8028 18.5936 12.6486 18.8502 13.3681 19.331C14.0876 19.8117 14.6483 20.495 14.9794 21.2944C15.3106 22.0938 15.3972 22.9735 15.2284 23.8222C15.0596 24.6708 14.6429 25.4504 14.0311 26.0622C13.4192 26.6741 12.6397 27.0908 11.791 27.2596C10.9423 27.4284 10.0627 27.3417 9.26323 27.0106C8.46381 26.6795 7.78053 26.1187 7.29979 25.3993C6.81906 24.6798 6.56247 23.8339 6.56247 22.9686C6.56378 21.8087 7.02513 20.6967 7.84532 19.8765C8.66551 19.0563 9.77755 18.5949 10.9375 18.5936Z" fill="white"/>
</svg>