<svg xmlns="http://www.w3.org/2000/svg" width="84" height="84" viewBox="0 0 84 84" fill="none">
  <path d="M45.2799 39.8108L46.5951 42.0827C49.4274 40.4434 51.1875 37.3944 51.1875 34.125C51.1875 29.0588 47.0649 24.9375 42 24.9375C36.9351 24.9375 32.8125 29.0588 32.8125 34.125C32.8125 37.2094 34.3481 40.0719 36.9193 41.7808L38.3723 39.5955C36.5348 38.3736 35.4375 36.3287 35.4375 34.125C35.4375 30.5064 38.3814 27.5625 42 27.5625C45.6186 27.5625 48.5625 30.5064 48.5625 34.125C48.5625 36.4599 47.3051 38.6387 45.2799 39.8108Z" fill="#0B56BC"/>
  <path d="M24.9375 34.125C24.9375 39.8527 27.7883 45.1684 32.5644 48.3433L34.0174 46.158C29.9762 43.47 27.5625 38.9721 27.5625 34.125C27.5625 26.1647 34.0397 19.6875 42 19.6875C49.9603 19.6875 56.4375 26.1647 56.4375 34.125C56.4375 38.9721 54.0238 43.47 49.9826 46.1567L51.4356 48.3433C56.2117 45.1684 59.0625 39.8527 59.0625 34.125C59.0625 24.717 51.408 17.0625 42 17.0625C32.592 17.0625 24.9375 24.717 24.9375 34.125Z" fill="#0B56BC"/>
  <path d="M73.5 35.4375C73.5 34.5188 73.4593 33.5961 73.3793 32.697L70.7648 32.9293C70.8383 33.751 70.875 34.5949 70.875 35.4375C70.875 45.5621 65.7117 54.7759 57.0636 60.0823L58.4378 62.3201C67.8694 56.532 73.5 46.4835 73.5 35.4375Z" fill="#0B56BC"/>
  <path d="M42 6.5625C47.8353 6.5625 53.4568 8.29894 58.2553 11.5828L59.7371 9.41719C54.5002 5.83144 48.3682 3.9375 42 3.9375C38.2344 3.9375 34.5476 4.59506 31.0432 5.89444L31.9554 8.35538C35.1671 7.16494 38.5468 6.5625 42 6.5625Z" fill="#0B56BC"/>
  <path d="M12.4582 24.4807C11.1589 27.9812 10.5 31.668 10.5 35.4375C10.5 46.4861 16.1319 56.5346 25.5649 62.3148L26.9364 60.077C18.2884 54.7771 13.125 45.566 13.125 35.4375C13.125 31.9803 13.7287 28.602 14.9192 25.3942L12.4582 24.4807Z" fill="#0B56BC"/>
  <path d="M48.5625 55.125C48.5625 51.95 46.3076 49.3027 43.3125 48.695V38.0625C44.8389 37.5204 45.9375 36.078 45.9375 34.3665C45.9375 32.1916 44.1748 30.429 42 30.429C39.8252 30.429 38.0625 32.1916 38.0625 34.3665C38.0625 36.078 39.1611 37.5204 40.6875 38.0625V48.695C37.6924 49.3027 35.4375 51.95 35.4375 55.125C35.4375 58.7488 38.3762 61.6875 42 61.6875C45.6238 61.6875 48.5625 58.7488 48.5625 55.125Z" fill="#0B56BC"/>
  <path d="M30.1875 66.9375V81.375H53.8125V66.9375C53.8125 64.0382 51.6968 61.6875 49.0875 61.6875H42H34.9125C32.3033 61.6875 30.1875 64.0382 30.1875 66.9375Z" fill="#0B56BC"/>
  <path d="M80.0625 19.6875C80.0625 13.8889 75.3611 9.1875 69.5625 9.1875C63.7639 9.1875 59.0625 13.8889 59.0625 19.6875C59.0625 25.4861 63.7639 30.1875 69.5625 30.1875C75.3611 30.1875 80.0625 25.4861 80.0625 19.6875ZM69.5625 28.875C66.9966 28.875 64.68 27.8211 63.0131 26.1253C63.0801 23.2851 65.3927 21 68.25 21H69.5625C67.3877 21 65.625 19.2373 65.625 17.0625C65.625 14.8877 67.3877 13.125 69.5625 13.125C71.7373 13.125 73.5 14.8877 73.5 17.0625C73.5 19.2373 71.7373 21 69.5625 21H70.875C73.7323 21 76.0449 23.2851 76.1119 26.1253C74.445 27.8211 72.1284 28.875 69.5625 28.875Z" fill="#0B56BC"/>
  <path d="M19.6875 23.625C25.4861 23.625 30.1875 18.9236 30.1875 13.125C30.1875 7.32637 25.4861 2.625 19.6875 2.625C13.8889 2.625 9.1875 7.32637 9.1875 13.125C9.1875 18.9236 13.8889 23.625 19.6875 23.625ZM18.375 14.4375H19.6875C17.5127 14.4375 15.75 12.6748 15.75 10.5C15.75 8.32519 17.5127 6.5625 19.6875 6.5625C21.8623 6.5625 23.625 8.32519 23.625 10.5C23.625 12.6748 21.8623 14.4375 19.6875 14.4375H21C23.8573 14.4375 26.1699 16.7226 26.2369 19.5628C24.57 21.2586 22.2534 22.3125 19.6875 22.3125C17.1216 22.3125 14.805 21.2586 13.1381 19.5628C13.2051 16.7226 15.5177 14.4375 18.375 14.4375Z" fill="#0B56BC"/>
</svg>