<svg xmlns="http://www.w3.org/2000/svg" width="25" height="25" viewBox="0 0 25 25" fill="none">
  <g clip-path="url(#clip0_7434_95280)">
    <path fill-rule="evenodd" clip-rule="evenodd" d="M11.3486 0.0854492H13.5661C16.6115 0.0854492 18.3875 0.531967 19.9679 1.37985C21.5483 2.22773 22.7925 3.46193 23.6303 5.0423C24.4782 6.62268 24.9247 8.39871 24.9247 11.4441V13.6516C24.9247 16.6969 24.4782 18.473 23.6303 20.0533C22.7825 21.6337 21.5483 22.8779 19.9679 23.7158C18.3875 24.5637 16.6115 25.0102 13.5661 25.0102H11.3586C8.31326 25.0102 6.53723 24.5637 4.95685 23.7158C3.37648 22.8679 2.13225 21.6337 1.2944 20.0533C0.446518 18.473 0 16.6969 0 13.6516V11.4441C0 8.39871 0.446518 6.62268 1.2944 5.0423C2.14228 3.46193 3.37648 2.2177 4.95685 1.37985C6.52217 0.531967 8.31326 0.0854492 11.3486 0.0854492Z" fill="#59697A"/>
    <path opacity="0.12" fill-rule="evenodd" clip-rule="evenodd" d="M24.9197 13.2803V13.6465C24.9197 16.6919 24.4732 18.4679 23.6253 20.0483C22.7774 21.6287 21.5432 22.8729 19.9629 23.7107C18.3825 24.5586 16.6065 25.0051 13.5611 25.0051H11.3536C8.86513 25.0051 7.21954 24.7041 5.83985 24.1322L3.5621 21.7892L24.9147 13.2853L24.9197 13.2803Z" fill="#59697A"/>
    <path fill-rule="evenodd" clip-rule="evenodd" d="M3.81799 21.8694C4.98195 21.9998 6.44191 21.6637 7.47543 21.1619C11.9657 23.6454 18.9896 23.525 23.239 20.8057C23.4046 20.5599 23.5601 20.299 23.7006 20.0331C24.5485 18.4477 25 16.6616 25 13.6113V11.3988C25 8.34337 24.5535 6.55729 23.7006 4.97692C22.8627 3.39153 21.6085 2.15232 20.0231 1.29942C18.4377 0.451535 16.6516 0 13.6013 0H11.3787C8.77485 0 7.08911 0.326109 5.66929 0.953241C5.59403 1.02348 5.51376 1.09372 5.44352 1.16396C1.27936 5.1776 0.963286 13.8772 4.4953 18.6033C4.4953 18.6083 4.50533 18.6183 4.51035 18.6233C5.05219 19.426 4.53041 20.8308 3.70762 21.6486C3.57216 21.774 3.62233 21.8493 3.82301 21.8694H3.81799Z" fill="white"/>
    <path d="M10.2348 8.52881H5.35319V9.57737H8.73971L5.40336 13.7164C5.298 13.867 5.22275 14.0125 5.22275 14.3335V14.5994H9.82841C10.0542 14.5994 10.2448 14.4088 10.2448 14.183V13.6211H6.68773L9.82841 9.68273C9.87356 9.62754 9.96387 9.52219 9.99899 9.47202L10.0191 9.44191C10.1997 9.17601 10.2398 8.94522 10.2398 8.66929V8.52881H10.2348Z" fill="#59697A"/>
    <path d="M16.4459 14.5944H17.1383V8.52881H16.0897V14.2432C16.0897 14.4339 16.2402 14.5944 16.4409 14.5944H16.4459Z" fill="#59697A"/>
    <path d="M12.8687 9.87842C11.5543 9.87842 10.4907 10.942 10.4907 12.2565C10.4907 13.571 11.5543 14.6346 12.8687 14.6346C14.1832 14.6346 15.2468 13.571 15.2468 12.2565C15.2569 10.942 14.1933 9.87842 12.8687 9.87842ZM12.8687 13.6563C12.0961 13.6563 11.469 13.0291 11.469 12.2565C11.469 11.4839 12.0961 10.8567 12.8687 10.8567C13.6414 10.8567 14.2685 11.4839 14.2685 12.2565C14.2685 13.0291 13.6514 13.6563 12.8687 13.6563Z" fill="#59697A"/>
    <path d="M20.2288 9.84326C18.9043 9.84326 17.8306 10.9169 17.8306 12.2414C17.8306 13.5659 18.9043 14.6396 20.2288 14.6396C21.5533 14.6396 22.6269 13.5659 22.6269 12.2414C22.6269 10.9169 21.5533 9.84326 20.2288 9.84326ZM20.2288 13.6562C19.4511 13.6562 18.819 13.0291 18.819 12.2464C18.819 11.4638 19.4461 10.8366 20.2288 10.8366C21.0114 10.8366 21.6386 11.4638 21.6386 12.2464C21.6386 13.0291 21.0114 13.6562 20.2288 13.6562Z" fill="#59697A"/>
    <path d="M14.695 14.5944H15.2569V10.0088H14.2785V14.183C14.2785 14.4037 14.4692 14.5944 14.695 14.5944Z" fill="#59697A"/>
  </g>
  <defs>
    <clipPath id="clip0_7434_95280">
      <rect width="25" height="25" fill="white"/>
    </clipPath>
  </defs>
</svg>