<svg xmlns="http://www.w3.org/2000/svg" width="38" height="38" viewBox="0 0 38 38" fill="none">
  <path d="M31.8757 10.3462L22.6687 0.959045V7.3528C22.6687 8.14208 22.9823 8.89904 23.5404 9.45715C24.0985 10.0153 24.8555 10.3288 25.6447 10.3288L31.8757 10.3462Z" fill="#333333"/>
  <path d="M7.17844 24.6043H5.32425V5.09753C5.32423 4.03816 5.73046 3.01911 6.45928 2.25028C7.1881 1.48145 8.18401 1.02138 9.24187 0.964844H21.0296V2.81322H9.34069C8.75726 2.84444 8.20796 3.09803 7.80578 3.52184C7.40359 3.94565 7.17909 4.50745 7.17844 5.09172V24.6043Z" fill="#333333"/>
  <path d="M30.0216 12.0086H31.8757V24.5985H30.0216V12.0086Z" fill="#333333"/>
  <path d="M22.2096 32.021H23.5697L22.8896 30.0215L22.2096 32.021Z" fill="#333333"/>
  <path d="M5.32425 26.1969V32.1024C5.33186 33.1976 5.77032 34.2459 6.5448 35.0204C7.31928 35.7948 8.3675 36.2333 9.46275 36.2409H27.7373C28.8344 36.2394 29.8861 35.8028 30.6619 35.0271C31.4377 34.2513 31.8742 33.1995 31.8757 32.1024V26.1969H5.32425ZM12.6771 34.3344H11.0437V28.0802H12.6771V34.3344ZM18.6523 31.5328C18.4448 31.7888 18.1766 31.9888 17.872 32.1147C17.5675 32.2406 17.2363 32.2883 16.9086 32.2535H15.9088V34.3518H14.2755V28.0802H16.8562C17.1664 28.0584 17.4775 28.1049 17.7677 28.2164C18.058 28.3279 18.3202 28.5016 18.5361 28.7253C18.8746 29.1184 19.0512 29.6253 19.0301 30.1436C19.0581 30.6408 18.9257 31.1339 18.6523 31.5502V31.5328ZM24.4125 34.3518L24.0056 33.2591H21.7562L21.3261 34.3518H19.5823L21.9945 28.0802H23.7731L26.1562 34.3518H24.4125Z" fill="#333333"/>
  <path d="M16.4552 29.3938H15.9088V30.9573H16.4552C16.5858 30.9721 16.7182 30.9591 16.8434 30.919C16.9686 30.8789 17.084 30.8128 17.1818 30.7248C17.3131 30.5608 17.3775 30.3531 17.3619 30.1436C17.37 30.0379 17.3561 29.9317 17.3211 29.8317C17.2861 29.7316 17.2307 29.6399 17.1585 29.5623C16.9553 29.4159 16.7027 29.3554 16.4552 29.3938Z" fill="#333333"/>
</svg>