<svg xmlns="http://www.w3.org/2000/svg" width="34" height="34" viewBox="0 0 34 34" fill="none">
  <path d="M27.6183 22.2795C26.6488 21.2834 23.8929 19.4174 22.0867 19.4174C21.6683 19.4174 21.3031 19.5104 21.0042 19.7029C20.121 20.2674 19.4171 20.7057 19.0785 20.7057C18.8925 20.7057 18.6933 20.5396 18.255 20.1611L18.182 20.0947C16.9667 19.0389 16.7078 18.7666 16.2363 18.2752L16.1167 18.149C16.0304 18.0627 15.9574 17.983 15.8843 17.91C15.4726 17.485 15.1738 17.1795 14.1179 15.9842L14.0714 15.9311C13.5667 15.36 13.2347 14.9881 13.2148 14.7158C13.1949 14.4502 13.4273 14.0186 14.0183 13.215C14.7355 12.2455 14.7621 11.0502 14.1046 9.6623C13.58 8.5666 12.7234 7.51738 11.9664 6.59434L11.8999 6.51465C11.2492 5.71777 10.4921 5.31934 9.64878 5.31934C8.71245 5.31934 7.9355 5.82402 7.52378 6.08965C7.49057 6.10957 7.45737 6.13613 7.42417 6.15605C6.50112 6.74043 5.83042 7.54395 5.57807 8.36074C5.19956 9.58926 4.94721 11.183 6.7601 14.4967C8.32729 17.3654 9.74839 19.2912 12.0062 21.6088C14.1312 23.7869 15.0742 24.4908 17.1859 26.0182C19.5367 27.7182 21.7945 28.6943 23.3749 28.6943C24.8425 28.6943 25.998 28.6943 27.6449 26.7088C29.3714 24.6236 28.6542 23.3486 27.6183 22.2795Z" fill="#1978EF"/>
</svg>