<svg xmlns="http://www.w3.org/2000/svg" width="67" height="67" viewBox="0 0 67 67" fill="none">
  <path d="M62.8125 2.09375H4.1875C3.63237 2.0943 3.10014 2.31507 2.70761 2.70761C2.31507 3.10014 2.0943 3.63237 2.09375 4.1875V62.8125C2.0943 63.3676 2.31507 63.8999 2.70761 64.2924C3.10014 64.6849 3.63237 64.9057 4.1875 64.9062H62.8125C63.3676 64.9057 63.8999 64.6849 64.2924 64.2924C64.6849 63.8999 64.9057 63.3676 64.9062 62.8125V4.1875C64.9057 3.63237 64.6849 3.10014 64.2924 2.70761C63.8999 2.31507 63.3676 2.0943 62.8125 2.09375ZM62.8125 4.1875V16.75H4.1875V4.1875H62.8125ZM4.1875 62.8125V18.8438H62.8125L62.8137 62.8125H4.1875Z" fill="white"/>
  <path d="M11.5156 14.6563C12.3438 14.6563 13.1534 14.4107 13.8421 13.9505C14.5307 13.4904 15.0674 12.8364 15.3844 12.0712C15.7013 11.3061 15.7842 10.4641 15.6227 9.65181C15.4611 8.83952 15.0623 8.09337 14.4766 7.50774C13.891 6.92211 13.1449 6.52329 12.3326 6.36171C11.5203 6.20014 10.6783 6.28306 9.91314 6.60001C9.14797 6.91695 8.49397 7.45367 8.03385 8.1423C7.57372 8.83093 7.32813 9.64054 7.32812 10.4688C7.32937 11.579 7.77095 12.6433 8.55599 13.4284C9.34103 14.2134 10.4054 14.655 11.5156 14.6563ZM11.5156 8.375C11.9297 8.375 12.3345 8.4978 12.6788 8.72786C13.0232 8.95793 13.2915 9.28493 13.45 9.66751C13.6085 10.0501 13.6499 10.4711 13.5691 10.8772C13.4884 11.2834 13.2889 11.6564 12.9961 11.9493C12.7033 12.2421 12.3302 12.4415 11.9241 12.5223C11.5179 12.6031 11.097 12.5616 10.7144 12.4031C10.3318 12.2447 10.0048 11.9763 9.77474 11.632C9.54467 11.2877 9.42187 10.8829 9.42187 10.4688C9.42243 9.91363 9.6432 9.38139 10.0357 8.98886C10.4283 8.59633 10.9605 8.37556 11.5156 8.375Z" fill="white"/>
  <path d="M23.0312 14.6563C23.8595 14.6563 24.6691 14.4107 25.3577 13.9505C26.0463 13.4904 26.5831 12.8364 26.9 12.0712C27.2169 11.3061 27.2999 10.4641 27.1383 9.65181C26.9767 8.83952 26.5779 8.09337 25.9923 7.50774C25.4066 6.92211 24.6605 6.52329 23.8482 6.36171C23.0359 6.20014 22.1939 6.28306 21.4288 6.60001C20.6636 6.91695 20.0096 7.45367 19.5495 8.1423C19.0893 8.83093 18.8438 9.64054 18.8438 10.4688C18.845 11.579 19.2866 12.6433 20.0716 13.4284C20.8567 14.2134 21.921 14.655 23.0312 14.6563ZM23.0312 8.375C23.4454 8.375 23.8502 8.4978 24.1945 8.72786C24.5388 8.95793 24.8072 9.28493 24.9656 9.66751C25.1241 10.0501 25.1656 10.4711 25.0848 10.8772C25.004 11.2834 24.8046 11.6564 24.5118 11.9493C24.2189 12.2421 23.8459 12.4415 23.4397 12.5223C23.0336 12.6031 22.6126 12.5616 22.23 12.4031C21.8474 12.2447 21.5204 11.9763 21.2904 11.632C21.0603 11.2877 20.9375 10.8829 20.9375 10.4688C20.9381 9.91363 21.1588 9.38139 21.5514 8.98886C21.9439 8.59633 22.4761 8.37556 23.0312 8.375Z" fill="white"/>
  <path d="M31.4062 14.6562H58.625C58.9026 14.6562 59.1689 14.546 59.3653 14.3496C59.5616 14.1533 59.6719 13.887 59.6719 13.6094V7.32812C59.6719 7.05048 59.5616 6.7842 59.3653 6.58787C59.1689 6.39155 58.9026 6.28125 58.625 6.28125H31.4062C31.1286 6.28125 30.8623 6.39155 30.666 6.58787C30.4697 6.7842 30.3594 7.05048 30.3594 7.32812V13.6094C30.3594 13.887 30.4697 14.1533 30.666 14.3496C30.8623 14.546 31.1286 14.6562 31.4062 14.6562ZM32.4531 8.375H57.5781V12.5625H32.4531V8.375Z" fill="white"/>
  <path d="M38.7344 23.0312H9.42188C9.14423 23.0312 8.87795 23.1415 8.68162 23.3379C8.4853 23.5342 8.375 23.8005 8.375 24.0781V57.5781C8.375 57.8558 8.4853 58.1221 8.68162 58.3184C8.87795 58.5147 9.14423 58.625 9.42188 58.625H38.7344C39.012 58.625 39.2783 58.5147 39.4746 58.3184C39.671 58.1221 39.7812 57.8558 39.7812 57.5781V24.0781C39.7812 23.8005 39.671 23.5342 39.4746 23.3379C39.2783 23.1415 39.012 23.0312 38.7344 23.0312ZM37.6875 25.125V50.25H10.4688V25.125H37.6875ZM10.4688 56.5312V52.3438H37.6875V56.5312H10.4688Z" fill="white"/>
  <path d="M18.8438 46.6723C19.1613 46.8582 19.5226 46.9562 19.8906 46.9562C20.2586 46.9562 20.62 46.8582 20.9375 46.6723L32.4531 40.0235C32.7713 39.8397 33.0356 39.5754 33.2193 39.2571C33.403 38.9389 33.4997 38.5779 33.4997 38.2104C33.4997 37.8429 33.403 37.4819 33.2193 37.1636C33.0356 36.8454 32.7713 36.5811 32.4531 36.3973L20.9375 29.749C20.6192 29.5653 20.2582 29.4685 19.8907 29.4685C19.5232 29.4685 19.1621 29.5652 18.8438 29.749C18.5255 29.9327 18.2612 30.197 18.0775 30.5153C17.8937 30.8335 17.7969 31.1946 17.7969 31.5621V44.8597C17.7947 45.2276 17.8905 45.5894 18.0745 45.908C18.2585 46.2266 18.524 46.4904 18.8438 46.6723ZM19.8906 31.5626L31.4063 38.2109L19.8906 44.8597V31.5626Z" fill="white"/>
  <path d="M49.2031 29.3125H57.5781C57.8558 29.3125 58.1221 29.2022 58.3184 29.0059C58.5147 28.8096 58.625 28.5433 58.625 28.2656C58.625 27.988 58.5147 27.7217 58.3184 27.5254C58.1221 27.329 57.8558 27.2188 57.5781 27.2188H49.2031C48.9255 27.2188 48.6592 27.329 48.4629 27.5254C48.2665 27.7217 48.1562 27.988 48.1562 28.2656C48.1562 28.5433 48.2665 28.8096 48.4629 29.0059C48.6592 29.2022 48.9255 29.3125 49.2031 29.3125Z" fill="white"/>
  <path d="M57.5781 35.5938H45.0156C44.738 35.5938 44.4717 35.704 44.2754 35.9004C44.079 36.0967 43.9688 36.363 43.9688 36.6406C43.9688 36.9183 44.079 37.1846 44.2754 37.3809C44.4717 37.5772 44.738 37.6875 45.0156 37.6875H57.5781C57.8558 37.6875 58.1221 37.5772 58.3184 37.3809C58.5147 37.1846 58.625 36.9183 58.625 36.6406C58.625 36.363 58.5147 36.0967 58.3184 35.9004C58.1221 35.704 57.8558 35.5938 57.5781 35.5938Z" fill="white"/>
  <path d="M57.5781 43.9688H45.0156C44.738 43.9688 44.4717 44.079 44.2754 44.2754C44.079 44.4717 43.9688 44.738 43.9688 45.0156C43.9688 45.2933 44.079 45.5596 44.2754 45.7559C44.4717 45.9522 44.738 46.0625 45.0156 46.0625H57.5781C57.8558 46.0625 58.1221 45.9522 58.3184 45.7559C58.5147 45.5596 58.625 45.2933 58.625 45.0156C58.625 44.738 58.5147 44.4717 58.3184 44.2754C58.1221 44.079 57.8558 43.9688 57.5781 43.9688Z" fill="white"/>
  <path d="M57.5781 52.3438H45.0156C44.738 52.3438 44.4717 52.454 44.2754 52.6504C44.079 52.8467 43.9688 53.113 43.9688 53.3906C43.9688 53.6683 44.079 53.9346 44.2754 54.1309C44.4717 54.3272 44.738 54.4375 45.0156 54.4375H57.5781C57.8558 54.4375 58.1221 54.3272 58.3184 54.1309C58.5147 53.9346 58.625 53.6683 58.625 53.3906C58.625 53.113 58.5147 52.8467 58.3184 52.6504C58.1221 52.454 57.8558 52.3438 57.5781 52.3438Z" fill="white"/>
</svg>